<svg xmlns="http://www.w3.org/2000/svg" xmlns:svg="http://www.w3.org/2000/svg" xmlns:xlink="http://www.w3.org/1999/xlink" id="svg2" width="324.618" height="196.868" version="1.0"><defs id="defs4"><linearGradient id="linearGradient3326"><stop style="stop-color:#fff;stop-opacity:1" id="stop3328" offset="0"/><stop style="stop-color:#fff;stop-opacity:0" id="stop3330" offset="1"/></linearGradient><linearGradient id="linearGradient3546"><stop style="stop-color:#fff;stop-opacity:1" id="stop3548" offset="0"/><stop style="stop-color:#fff;stop-opacity:0" id="stop3550" offset="1"/></linearGradient><linearGradient id="linearGradient3343"><stop style="stop-color:#73d216;stop-opacity:1" id="stop3345" offset="0"/><stop style="stop-color:#73d216;stop-opacity:0" id="stop3347" offset="1"/></linearGradient><linearGradient id="linearGradient3335"><stop style="stop-color:#73d216;stop-opacity:1" id="stop3337" offset="0"/><stop style="stop-color:#73d216;stop-opacity:0" id="stop3339" offset="1"/></linearGradient><linearGradient id="linearGradient3327"><stop style="stop-color:#73d216;stop-opacity:1" id="stop3329" offset="0"/><stop style="stop-color:#73d216;stop-opacity:0" id="stop3331" offset="1"/></linearGradient><linearGradient id="linearGradient3319"><stop style="stop-color:#3465a4;stop-opacity:1" id="stop3321" offset="0"/><stop style="stop-color:#3465a4;stop-opacity:0" id="stop3323" offset="1"/></linearGradient><linearGradient id="linearGradient3299"><stop style="stop-color:#3465a4;stop-opacity:1" id="stop3301" offset="0"/><stop style="stop-color:#3465a4;stop-opacity:0" id="stop3303" offset="1"/></linearGradient><linearGradient id="linearGradient3273"><stop style="stop-color:#73d216;stop-opacity:1" id="stop3275" offset="0"/><stop style="stop-color:#73d216;stop-opacity:0" id="stop3277" offset="1"/></linearGradient><linearGradient id="linearGradient3376"><stop style="stop-color:#73d216;stop-opacity:1" id="stop3378" offset="0"/><stop style="stop-color:#73d216;stop-opacity:0" id="stop3380" offset="1"/></linearGradient><linearGradient id="linearGradient3358"><stop style="stop-color:#4e9a06;stop-opacity:1" id="stop3360" offset="0"/><stop style="stop-color:#4e9a06;stop-opacity:0" id="stop3362" offset="1"/></linearGradient><linearGradient id="linearGradient3232"><stop style="stop-color:#3465a4;stop-opacity:1" id="stop3234" offset="0"/><stop style="stop-color:#3465a4;stop-opacity:0" id="stop3236" offset="1"/></linearGradient><linearGradient id="linearGradient3165"><stop style="stop-color:#204a87;stop-opacity:1" id="stop3167" offset="0"/><stop style="stop-color:#204a87;stop-opacity:0" id="stop3169" offset="1"/></linearGradient><linearGradient id="linearGradient3171" x1="402.063" x2="404.781" y1="289.578" y2="289.578" gradientUnits="userSpaceOnUse" xlink:href="#linearGradient3165"/><linearGradient id="linearGradient3173" x1="381.969" x2="399.219" y1="292.033" y2="292.033" gradientUnits="userSpaceOnUse" xlink:href="#linearGradient3165"/><linearGradient id="linearGradient3175" x1="408.969" x2="420.344" y1="291.734" y2="291.734" gradientUnits="userSpaceOnUse" xlink:href="#linearGradient3165"/><linearGradient id="linearGradient3177" x1="420.875" x2="425.563" y1="290.906" y2="290.906" gradientUnits="userSpaceOnUse" xlink:href="#linearGradient3165"/><linearGradient id="linearGradient3179" x1="428.719" x2="432.938" y1="290.328" y2="290.328" gradientUnits="userSpaceOnUse" xlink:href="#linearGradient3165"/><linearGradient id="linearGradient3238" x1="402.063" x2="404.781" y1="289.578" y2="289.578" gradientUnits="userSpaceOnUse" xlink:href="#linearGradient3232"/><linearGradient id="linearGradient3240" x1="381.969" x2="399.219" y1="292.033" y2="292.033" gradientUnits="userSpaceOnUse" xlink:href="#linearGradient3232"/><linearGradient id="linearGradient3242" x1="408.969" x2="420.344" y1="291.734" y2="291.734" gradientUnits="userSpaceOnUse" xlink:href="#linearGradient3232"/><linearGradient id="linearGradient3244" x1="420.875" x2="425.563" y1="290.906" y2="290.906" gradientUnits="userSpaceOnUse" xlink:href="#linearGradient3232"/><linearGradient id="linearGradient3246" x1="428.719" x2="432.938" y1="290.328" y2="290.328" gradientUnits="userSpaceOnUse" xlink:href="#linearGradient3232"/><linearGradient id="linearGradient3364" x1="402.063" x2="406.875" y1="299.453" y2="299.453" gradientUnits="userSpaceOnUse" xlink:href="#linearGradient3358"/><linearGradient id="linearGradient3366" x1="396.5" x2="399.219" y1="299.422" y2="299.422" gradientUnits="userSpaceOnUse" xlink:href="#linearGradient3358"/><linearGradient id="linearGradient3368" x1="389.219" x2="391.938" y1="299.391" y2="299.391" gradientUnits="userSpaceOnUse" xlink:href="#linearGradient3358"/><linearGradient id="linearGradient3370" x1="381.969" x2="384.688" y1="298.953" y2="298.953" gradientUnits="userSpaceOnUse" xlink:href="#linearGradient3358"/><linearGradient id="linearGradient3372" x1="408.969" x2="420.406" y1="300.891" y2="300.891" gradientUnits="userSpaceOnUse" xlink:href="#linearGradient3358"/><linearGradient id="linearGradient3374" x1="422.188" x2="431.625" y1="299.781" y2="299.781" gradientUnits="userSpaceOnUse" xlink:href="#linearGradient3358"/><linearGradient id="linearGradient3382" x1="402.063" x2="406.875" y1="299.453" y2="299.453" gradientUnits="userSpaceOnUse" xlink:href="#linearGradient3376"/><linearGradient id="linearGradient3384" x1="396.5" x2="399.219" y1="299.422" y2="299.422" gradientUnits="userSpaceOnUse" xlink:href="#linearGradient3376"/><linearGradient id="linearGradient3386" x1="389.219" x2="391.938" y1="299.391" y2="299.391" gradientUnits="userSpaceOnUse" xlink:href="#linearGradient3376"/><linearGradient id="linearGradient3388" x1="381.969" x2="384.688" y1="298.953" y2="298.953" gradientUnits="userSpaceOnUse" xlink:href="#linearGradient3376"/><linearGradient id="linearGradient3390" x1="408.969" x2="420.406" y1="300.891" y2="300.891" gradientUnits="userSpaceOnUse" xlink:href="#linearGradient3376"/><linearGradient id="linearGradient3392" x1="422.188" x2="431.625" y1="299.781" y2="299.781" gradientUnits="userSpaceOnUse" xlink:href="#linearGradient3376"/><linearGradient id="linearGradient3279" x1="378.064" x2="395.814" y1="298.953" y2="298.953" gradientUnits="userSpaceOnUse" xlink:href="#linearGradient3273"/><linearGradient id="linearGradient3325" x1="417.221" x2="429.283" y1="290.906" y2="290.906" gradientUnits="userSpaceOnUse" xlink:href="#linearGradient3319"/><linearGradient id="linearGradient3351" x1="417.221" x2="429.283" y1="290.906" y2="290.906" gradientUnits="userSpaceOnUse" xlink:href="#linearGradient3319"/><linearGradient id="linearGradient3353" x1="417.221" x2="429.283" y1="290.906" y2="290.906" gradientUnits="userSpaceOnUse" xlink:href="#linearGradient3319"/><linearGradient id="linearGradient3606" x1="402.063" x2="404.781" y1="289.578" y2="289.578" gradientTransform="matrix(6,0,0,6,-2041.6691,-1488.375)" gradientUnits="userSpaceOnUse" xlink:href="#linearGradient3232"/><linearGradient id="linearGradient3609" x1="398.408" x2="403.221" y1="299.453" y2="299.453" gradientTransform="matrix(6,0,0,6,-2019.7422,-1488.375)" gradientUnits="userSpaceOnUse" xlink:href="#linearGradient3327"/><linearGradient id="linearGradient3612" x1="378.064" x2="395.814" y1="298.953" y2="298.953" gradientTransform="matrix(6,0,0,6,-2019.7422,-1488.375)" gradientUnits="userSpaceOnUse" xlink:href="#linearGradient3273"/><linearGradient id="linearGradient3615" x1="378.064" x2="395.814" y1="298.953" y2="298.953" gradientTransform="matrix(6,0,0,6,-2019.7422,-1488.375)" gradientUnits="userSpaceOnUse" xlink:href="#linearGradient3273"/><linearGradient id="linearGradient3618" x1="378.064" x2="395.814" y1="298.953" y2="298.953" gradientTransform="matrix(6,0,0,6,-2019.7422,-1488.375)" gradientUnits="userSpaceOnUse" xlink:href="#linearGradient3273"/><linearGradient id="linearGradient3621" x1="378.314" x2="395.564" y1="292.033" y2="292.033" gradientTransform="matrix(6,0,0,6,-2019.7422,-1488.375)" gradientUnits="userSpaceOnUse" xlink:href="#linearGradient3299"/><linearGradient id="linearGradient3624" x1="408.969" x2="420.344" y1="291.734" y2="291.734" gradientTransform="matrix(6,0,0,6,-2041.6691,-1488.375)" gradientUnits="userSpaceOnUse" xlink:href="#linearGradient3232"/><linearGradient id="linearGradient3627" x1="405.314" x2="416.752" y1="300.891" y2="300.891" gradientTransform="matrix(6,0,0,6,-2019.7422,-1488.375)" gradientUnits="userSpaceOnUse" xlink:href="#linearGradient3335"/><linearGradient id="linearGradient3630" x1="417.221" x2="429.283" y1="290.906" y2="290.906" gradientTransform="matrix(6,0,0,6,-2022.1393,-1488.375)" gradientUnits="userSpaceOnUse" xlink:href="#linearGradient3319"/><linearGradient id="linearGradient3633" x1="417.221" x2="429.283" y1="290.906" y2="290.906" gradientTransform="matrix(6,0,0,6,-2017.9438,-1488.375)" gradientUnits="userSpaceOnUse" xlink:href="#linearGradient3319"/><linearGradient id="linearGradient3636" x1="418.533" x2="427.971" y1="299.781" y2="299.781" gradientTransform="matrix(6,0,0,6,-2019.7422,-1488.375)" gradientUnits="userSpaceOnUse" xlink:href="#linearGradient3343"/><linearGradient id="linearGradient4624" x1="418.533" x2="427.971" y1="299.781" y2="299.781" gradientTransform="matrix(6,0,0,6,-2019.7422,-1488.375)" gradientUnits="userSpaceOnUse" xlink:href="#linearGradient3343"/><linearGradient id="linearGradient4626" x1="417.221" x2="429.283" y1="290.906" y2="290.906" gradientTransform="matrix(6,0,0,6,-2017.9438,-1488.375)" gradientUnits="userSpaceOnUse" xlink:href="#linearGradient3319"/><linearGradient id="linearGradient4628" x1="417.221" x2="429.283" y1="290.906" y2="290.906" gradientTransform="matrix(6,0,0,6,-2022.1393,-1488.375)" gradientUnits="userSpaceOnUse" xlink:href="#linearGradient3319"/><linearGradient id="linearGradient4630" x1="405.314" x2="416.752" y1="300.891" y2="300.891" gradientTransform="matrix(6,0,0,6,-2019.7422,-1488.375)" gradientUnits="userSpaceOnUse" xlink:href="#linearGradient3335"/><linearGradient id="linearGradient4632" x1="408.969" x2="420.344" y1="291.734" y2="291.734" gradientTransform="matrix(6,0,0,6,-2041.6691,-1488.375)" gradientUnits="userSpaceOnUse" xlink:href="#linearGradient3232"/><linearGradient id="linearGradient4634" x1="378.314" x2="395.564" y1="292.033" y2="292.033" gradientTransform="matrix(6,0,0,6,-2019.7422,-1488.375)" gradientUnits="userSpaceOnUse" xlink:href="#linearGradient3299"/><linearGradient id="linearGradient4636" x1="378.064" x2="395.814" y1="298.953" y2="298.953" gradientTransform="matrix(6,0,0,6,-2019.7422,-1488.375)" gradientUnits="userSpaceOnUse" xlink:href="#linearGradient3273"/><linearGradient id="linearGradient4638" x1="378.064" x2="395.814" y1="298.953" y2="298.953" gradientTransform="matrix(6,0,0,6,-2019.7422,-1488.375)" gradientUnits="userSpaceOnUse" xlink:href="#linearGradient3273"/><linearGradient id="linearGradient4640" x1="378.064" x2="395.814" y1="298.953" y2="298.953" gradientTransform="matrix(6,0,0,6,-2019.7422,-1488.375)" gradientUnits="userSpaceOnUse" xlink:href="#linearGradient3273"/><linearGradient id="linearGradient4642" x1="398.408" x2="403.221" y1="299.453" y2="299.453" gradientTransform="matrix(6,0,0,6,-2019.7422,-1488.375)" gradientUnits="userSpaceOnUse" xlink:href="#linearGradient3327"/><linearGradient id="linearGradient4644" x1="402.063" x2="404.781" y1="289.578" y2="289.578" gradientTransform="matrix(6,0,0,6,-2041.6691,-1488.375)" gradientUnits="userSpaceOnUse" xlink:href="#linearGradient3232"/><linearGradient id="linearGradient2479" x1="402.063" x2="404.781" y1="289.578" y2="289.578" gradientTransform="matrix(6,0,0,6,-2035.7246,-1482.675)" gradientUnits="userSpaceOnUse" xlink:href="#linearGradient3232"/><linearGradient id="linearGradient2482" x1="398.408" x2="403.221" y1="299.453" y2="299.453" gradientTransform="matrix(6,0,0,6,-2013.7977,-1482.675)" gradientUnits="userSpaceOnUse" xlink:href="#linearGradient3327"/><linearGradient id="linearGradient2485" x1="378.064" x2="395.814" y1="298.953" y2="298.953" gradientTransform="matrix(6,0,0,6,-2013.7977,-1482.675)" gradientUnits="userSpaceOnUse" xlink:href="#linearGradient3273"/><linearGradient id="linearGradient2488" x1="378.064" x2="395.814" y1="298.953" y2="298.953" gradientTransform="matrix(6,0,0,6,-2013.7977,-1482.675)" gradientUnits="userSpaceOnUse" xlink:href="#linearGradient3273"/><linearGradient id="linearGradient2491" x1="378.064" x2="395.814" y1="298.953" y2="298.953" gradientTransform="matrix(6,0,0,6,-2013.7977,-1482.675)" gradientUnits="userSpaceOnUse" xlink:href="#linearGradient3273"/><linearGradient id="linearGradient2494" x1="378.314" x2="395.564" y1="292.033" y2="292.033" gradientTransform="matrix(6,0,0,6,-2013.7977,-1482.675)" gradientUnits="userSpaceOnUse" xlink:href="#linearGradient3299"/><linearGradient id="linearGradient2497" x1="408.969" x2="420.344" y1="291.734" y2="291.734" gradientTransform="matrix(6,0,0,6,-2035.7246,-1482.675)" gradientUnits="userSpaceOnUse" xlink:href="#linearGradient3232"/><linearGradient id="linearGradient2500" x1="405.314" x2="416.752" y1="300.891" y2="300.891" gradientTransform="matrix(6,0,0,6,-2013.7977,-1482.675)" gradientUnits="userSpaceOnUse" xlink:href="#linearGradient3335"/><linearGradient id="linearGradient2503" x1="417.221" x2="429.283" y1="290.906" y2="290.906" gradientTransform="matrix(6,0,0,6,-2016.1948,-1482.675)" gradientUnits="userSpaceOnUse" xlink:href="#linearGradient3319"/><linearGradient id="linearGradient2506" x1="417.221" x2="429.283" y1="290.906" y2="290.906" gradientTransform="matrix(6,0,0,6,-2011.9993,-1482.675)" gradientUnits="userSpaceOnUse" xlink:href="#linearGradient3319"/><linearGradient id="linearGradient2509" x1="418.533" x2="427.971" y1="299.781" y2="299.781" gradientTransform="matrix(6,0,0,6,-2013.7977,-1482.675)" gradientUnits="userSpaceOnUse" xlink:href="#linearGradient3343"/><linearGradient id="linearGradient2528" x1="418.533" x2="427.971" y1="299.781" y2="299.781" gradientTransform="matrix(6,0,0,6,-2013.7977,-1482.675)" gradientUnits="userSpaceOnUse" xlink:href="#linearGradient3343"/><linearGradient id="linearGradient2530" x1="417.221" x2="429.283" y1="290.906" y2="290.906" gradientTransform="matrix(6,0,0,6,-2011.9993,-1482.675)" gradientUnits="userSpaceOnUse" xlink:href="#linearGradient3319"/><linearGradient id="linearGradient2532" x1="417.221" x2="429.283" y1="290.906" y2="290.906" gradientTransform="matrix(6,0,0,6,-2016.1948,-1482.675)" gradientUnits="userSpaceOnUse" xlink:href="#linearGradient3319"/><linearGradient id="linearGradient2534" x1="405.314" x2="416.752" y1="300.891" y2="300.891" gradientTransform="matrix(6,0,0,6,-2013.7977,-1482.675)" gradientUnits="userSpaceOnUse" xlink:href="#linearGradient3335"/><linearGradient id="linearGradient2536" x1="408.969" x2="420.344" y1="291.734" y2="291.734" gradientTransform="matrix(6,0,0,6,-2035.7246,-1482.675)" gradientUnits="userSpaceOnUse" xlink:href="#linearGradient3232"/><linearGradient id="linearGradient2538" x1="378.314" x2="395.564" y1="292.033" y2="292.033" gradientTransform="matrix(6,0,0,6,-2013.7977,-1482.675)" gradientUnits="userSpaceOnUse" xlink:href="#linearGradient3299"/><linearGradient id="linearGradient2540" x1="378.064" x2="395.814" y1="298.953" y2="298.953" gradientTransform="matrix(6,0,0,6,-2013.7977,-1482.675)" gradientUnits="userSpaceOnUse" xlink:href="#linearGradient3273"/><linearGradient id="linearGradient2542" x1="378.064" x2="395.814" y1="298.953" y2="298.953" gradientTransform="matrix(6,0,0,6,-2013.7977,-1482.675)" gradientUnits="userSpaceOnUse" xlink:href="#linearGradient3273"/><linearGradient id="linearGradient2544" x1="378.064" x2="395.814" y1="298.953" y2="298.953" gradientTransform="matrix(6,0,0,6,-2013.7977,-1482.675)" gradientUnits="userSpaceOnUse" xlink:href="#linearGradient3273"/><linearGradient id="linearGradient2546" x1="398.408" x2="403.221" y1="299.453" y2="299.453" gradientTransform="matrix(6,0,0,6,-2013.7977,-1482.675)" gradientUnits="userSpaceOnUse" xlink:href="#linearGradient3327"/><linearGradient id="linearGradient2548" x1="402.063" x2="404.781" y1="289.578" y2="289.578" gradientTransform="matrix(6,0,0,6,-2035.7246,-1482.675)" gradientUnits="userSpaceOnUse" xlink:href="#linearGradient3232"/><linearGradient id="linearGradient2600" x1="418.533" x2="427.971" y1="299.781" y2="299.781" gradientTransform="matrix(6,0,0,6,-2013.7977,-1482.675)" gradientUnits="userSpaceOnUse" xlink:href="#linearGradient3343"/><linearGradient id="linearGradient2602" x1="417.221" x2="429.283" y1="290.906" y2="290.906" gradientTransform="matrix(6,0,0,6,-2011.9993,-1482.675)" gradientUnits="userSpaceOnUse" xlink:href="#linearGradient3319"/><linearGradient id="linearGradient2604" x1="417.221" x2="429.283" y1="290.906" y2="290.906" gradientTransform="matrix(6,0,0,6,-2016.1948,-1482.675)" gradientUnits="userSpaceOnUse" xlink:href="#linearGradient3319"/><linearGradient id="linearGradient2606" x1="405.314" x2="416.752" y1="300.891" y2="300.891" gradientTransform="matrix(6,0,0,6,-2013.7977,-1482.675)" gradientUnits="userSpaceOnUse" xlink:href="#linearGradient3335"/><linearGradient id="linearGradient2608" x1="408.969" x2="420.344" y1="291.734" y2="291.734" gradientTransform="matrix(6,0,0,6,-2035.7246,-1482.675)" gradientUnits="userSpaceOnUse" xlink:href="#linearGradient3232"/><linearGradient id="linearGradient2610" x1="378.314" x2="395.564" y1="292.033" y2="292.033" gradientTransform="matrix(6,0,0,6,-2013.7977,-1482.675)" gradientUnits="userSpaceOnUse" xlink:href="#linearGradient3299"/><linearGradient id="linearGradient2612" x1="378.064" x2="395.814" y1="298.953" y2="298.953" gradientTransform="matrix(6,0,0,6,-2013.7977,-1482.675)" gradientUnits="userSpaceOnUse" xlink:href="#linearGradient3273"/><linearGradient id="linearGradient2614" x1="378.064" x2="395.814" y1="298.953" y2="298.953" gradientTransform="matrix(6,0,0,6,-2013.7977,-1482.675)" gradientUnits="userSpaceOnUse" xlink:href="#linearGradient3273"/><linearGradient id="linearGradient2616" x1="378.064" x2="395.814" y1="298.953" y2="298.953" gradientTransform="matrix(6,0,0,6,-2013.7977,-1482.675)" gradientUnits="userSpaceOnUse" xlink:href="#linearGradient3273"/><linearGradient id="linearGradient2618" x1="398.408" x2="403.221" y1="299.453" y2="299.453" gradientTransform="matrix(6,0,0,6,-2013.7977,-1482.675)" gradientUnits="userSpaceOnUse" xlink:href="#linearGradient3327"/><linearGradient id="linearGradient2620" x1="402.063" x2="404.781" y1="289.578" y2="289.578" gradientTransform="matrix(6,0,0,6,-2035.7246,-1482.675)" gradientUnits="userSpaceOnUse" xlink:href="#linearGradient3232"/><linearGradient id="linearGradient2627" x1="402.063" x2="404.781" y1="289.578" y2="289.578" gradientTransform="matrix(6,0,0,6,-1998.7359,-1453.0011)" gradientUnits="userSpaceOnUse" xlink:href="#linearGradient3232"/><linearGradient id="linearGradient2630" x1="398.408" x2="403.221" y1="299.453" y2="299.453" gradientTransform="matrix(6,0,0,6,-1976.809,-1453.0011)" gradientUnits="userSpaceOnUse" xlink:href="#linearGradient3327"/><linearGradient id="linearGradient2633" x1="378.064" x2="395.814" y1="298.953" y2="298.953" gradientTransform="matrix(6,0,0,6,-1976.809,-1453.0011)" gradientUnits="userSpaceOnUse" xlink:href="#linearGradient3273"/><linearGradient id="linearGradient2636" x1="378.064" x2="395.814" y1="298.953" y2="298.953" gradientTransform="matrix(6,0,0,6,-1976.809,-1453.0011)" gradientUnits="userSpaceOnUse" xlink:href="#linearGradient3273"/><linearGradient id="linearGradient2639" x1="378.064" x2="395.814" y1="298.953" y2="298.953" gradientTransform="matrix(6,0,0,6,-1976.809,-1453.0011)" gradientUnits="userSpaceOnUse" xlink:href="#linearGradient3273"/><linearGradient id="linearGradient2642" x1="378.314" x2="395.564" y1="292.033" y2="292.033" gradientTransform="matrix(6,0,0,6,-1976.809,-1453.0011)" gradientUnits="userSpaceOnUse" xlink:href="#linearGradient3299"/><linearGradient id="linearGradient2645" x1="408.969" x2="420.344" y1="291.734" y2="291.734" gradientTransform="matrix(6,0,0,6,-1998.7359,-1453.0011)" gradientUnits="userSpaceOnUse" xlink:href="#linearGradient3232"/><linearGradient id="linearGradient2648" x1="405.314" x2="416.752" y1="300.891" y2="300.891" gradientTransform="matrix(6,0,0,6,-1976.809,-1453.0011)" gradientUnits="userSpaceOnUse" xlink:href="#linearGradient3335"/><linearGradient id="linearGradient2651" x1="417.221" x2="429.283" y1="290.906" y2="290.906" gradientTransform="matrix(6,0,0,6,-1979.2061,-1453.0011)" gradientUnits="userSpaceOnUse" xlink:href="#linearGradient3319"/><linearGradient id="linearGradient2654" x1="417.221" x2="429.283" y1="290.906" y2="290.906" gradientTransform="matrix(6,0,0,6,-1975.0106,-1453.0011)" gradientUnits="userSpaceOnUse" xlink:href="#linearGradient3319"/><linearGradient id="linearGradient2657" x1="418.533" x2="427.971" y1="299.781" y2="299.781" gradientTransform="matrix(6,0,0,6,-1976.809,-1453.0011)" gradientUnits="userSpaceOnUse" xlink:href="#linearGradient3343"/><linearGradient id="linearGradient2672" x1="418.533" x2="427.971" y1="299.781" y2="299.781" gradientTransform="matrix(6,0,0,6,-1976.809,-1453.0011)" gradientUnits="userSpaceOnUse" xlink:href="#linearGradient3343"/><linearGradient id="linearGradient2674" x1="417.221" x2="429.283" y1="290.906" y2="290.906" gradientTransform="matrix(6,0,0,6,-1975.0106,-1453.0011)" gradientUnits="userSpaceOnUse" xlink:href="#linearGradient3319"/><linearGradient id="linearGradient2676" x1="417.221" x2="429.283" y1="290.906" y2="290.906" gradientTransform="matrix(6,0,0,6,-1979.2061,-1453.0011)" gradientUnits="userSpaceOnUse" xlink:href="#linearGradient3319"/><linearGradient id="linearGradient2678" x1="405.314" x2="416.752" y1="300.891" y2="300.891" gradientTransform="matrix(6,0,0,6,-1976.809,-1453.0011)" gradientUnits="userSpaceOnUse" xlink:href="#linearGradient3335"/><linearGradient id="linearGradient2680" x1="408.969" x2="420.344" y1="291.734" y2="291.734" gradientTransform="matrix(6,0,0,6,-1998.7359,-1453.0011)" gradientUnits="userSpaceOnUse" xlink:href="#linearGradient3232"/><linearGradient id="linearGradient2682" x1="378.314" x2="395.564" y1="292.033" y2="292.033" gradientTransform="matrix(6,0,0,6,-1976.809,-1453.0011)" gradientUnits="userSpaceOnUse" xlink:href="#linearGradient3299"/><linearGradient id="linearGradient2684" x1="378.064" x2="395.814" y1="298.953" y2="298.953" gradientTransform="matrix(6,0,0,6,-1976.809,-1453.0011)" gradientUnits="userSpaceOnUse" xlink:href="#linearGradient3273"/><linearGradient id="linearGradient2686" x1="378.064" x2="395.814" y1="298.953" y2="298.953" gradientTransform="matrix(6,0,0,6,-1976.809,-1453.0011)" gradientUnits="userSpaceOnUse" xlink:href="#linearGradient3273"/><linearGradient id="linearGradient2688" x1="378.064" x2="395.814" y1="298.953" y2="298.953" gradientTransform="matrix(6,0,0,6,-1976.809,-1453.0011)" gradientUnits="userSpaceOnUse" xlink:href="#linearGradient3273"/><linearGradient id="linearGradient2690" x1="398.408" x2="403.221" y1="299.453" y2="299.453" gradientTransform="matrix(6,0,0,6,-1976.809,-1453.0011)" gradientUnits="userSpaceOnUse" xlink:href="#linearGradient3327"/><linearGradient id="linearGradient2692" x1="402.063" x2="404.781" y1="289.578" y2="289.578" gradientTransform="matrix(6,0,0,6,-1998.7359,-1453.0011)" gradientUnits="userSpaceOnUse" xlink:href="#linearGradient3232"/><linearGradient id="linearGradient3552" x1="323.775" x2="384.244" y1="227.743" y2="227.743" gradientTransform="translate(80.178572,-14.285714)" gradientUnits="userSpaceOnUse" xlink:href="#linearGradient3546"/><linearGradient id="linearGradient3350" x1="211.122" x2="313.652" y1="-45.217" y2="-45.217" gradientUnits="userSpaceOnUse" xlink:href="#linearGradient3326"/><linearGradient id="linearGradient3352" x1="211.122" x2="313.652" y1="-45.217" y2="-45.217" gradientUnits="userSpaceOnUse" xlink:href="#linearGradient3326"/><linearGradient id="linearGradient3509" x1="211.122" x2="313.652" y1="-45.217" y2="-45.217" gradientTransform="matrix(1.4679803,0,0,1.4679803,-9.76506,420.74933)" gradientUnits="userSpaceOnUse" xlink:href="#linearGradient3326"/><linearGradient id="linearGradient3512" x1="211.122" x2="313.652" y1="-45.217" y2="-45.217" gradientTransform="matrix(1.4679803,0,0,1.4679803,-51.75416,361.61113)" gradientUnits="userSpaceOnUse" xlink:href="#linearGradient3326"/><linearGradient id="linearGradient3692" x1="211.122" x2="313.652" y1="-45.217" y2="-45.217" gradientUnits="userSpaceOnUse" xlink:href="#linearGradient3326"/><linearGradient id="linearGradient2592" x1="211.122" x2="313.652" y1="-45.217" y2="-45.217" gradientTransform="matrix(1.4679803,0,0,1.4679803,-238.18457,-64.053116)" gradientUnits="userSpaceOnUse" xlink:href="#linearGradient3326"/><linearGradient id="linearGradient2594" x1="211.122" x2="313.652" y1="-45.217" y2="-45.217" gradientTransform="matrix(1.4679803,0,0,1.4679803,-280.17367,-123.19132)" gradientUnits="userSpaceOnUse" xlink:href="#linearGradient3326"/><linearGradient id="linearGradient2596" x1="211.122" x2="313.652" y1="-45.217" y2="-45.217" gradientTransform="matrix(1.4679803,0,0,1.4679803,-170.70711,-77.351316)" gradientUnits="userSpaceOnUse" xlink:href="#linearGradient3326"/><linearGradient id="linearGradient2598" x1="211.122" x2="313.652" y1="-45.217" y2="-45.217" gradientTransform="matrix(1.4679803,0,0,1.4679803,-128.718,-18.213116)" gradientUnits="userSpaceOnUse" xlink:href="#linearGradient3326"/><linearGradient id="linearGradient2601" x1="211.122" x2="313.652" y1="-45.217" y2="-45.217" gradientTransform="matrix(1.4679803,0,0,1.4679803,-48.74286,361.61113)" gradientUnits="userSpaceOnUse" xlink:href="#linearGradient3326"/><linearGradient id="linearGradient2603" x1="211.122" x2="313.652" y1="-45.217" y2="-45.217" gradientTransform="matrix(1.4679803,0,0,1.4679803,-6.75376,420.74933)" gradientUnits="userSpaceOnUse" xlink:href="#linearGradient3326"/><linearGradient id="linearGradient2605" x1="211.122" x2="313.652" y1="-45.217" y2="-45.217" gradientTransform="matrix(1.4679803,0,0,1.4679803,-317.07821,-183.41733)" gradientUnits="userSpaceOnUse" xlink:href="#linearGradient3326"/><linearGradient id="linearGradient2607" x1="211.122" x2="313.652" y1="-45.217" y2="-45.217" gradientTransform="matrix(1.4679803,0,0,1.4679803,-275.08911,-124.27913)" gradientUnits="userSpaceOnUse" xlink:href="#linearGradient3326"/><linearGradient id="linearGradient2609" x1="211.122" x2="313.652" y1="-45.217" y2="-45.217" gradientTransform="matrix(1.4679803,0,0,1.4679803,-275.08911,-124.27913)" gradientUnits="userSpaceOnUse" xlink:href="#linearGradient3326"/><linearGradient id="linearGradient2640" x1="211.122" x2="313.652" y1="-45.217" y2="-45.217" gradientTransform="matrix(1.4679803,0,0,1.4679803,-6.7501923,420.74933)" gradientUnits="userSpaceOnUse" xlink:href="#linearGradient3326"/><linearGradient id="linearGradient2643" x1="211.122" x2="313.652" y1="-45.217" y2="-45.217" gradientTransform="matrix(1.4679803,0,0,1.4679803,-48.739292,361.61113)" gradientUnits="userSpaceOnUse" xlink:href="#linearGradient3326"/><linearGradient id="linearGradient2662" x1="211.122" x2="313.652" y1="-45.217" y2="-45.217" gradientTransform="matrix(1.4679803,0,0,1.4679803,-317.07821,-183.41733)" gradientUnits="userSpaceOnUse" xlink:href="#linearGradient3326"/><linearGradient id="linearGradient2664" x1="211.122" x2="313.652" y1="-45.217" y2="-45.217" gradientTransform="matrix(1.4679803,0,0,1.4679803,-275.08911,-124.27913)" gradientUnits="userSpaceOnUse" xlink:href="#linearGradient3326"/><linearGradient id="linearGradient2666" x1="211.122" x2="313.652" y1="-45.217" y2="-45.217" gradientTransform="matrix(1.4679803,0,0,1.4679803,-275.08911,-124.27913)" gradientUnits="userSpaceOnUse" xlink:href="#linearGradient3326"/><linearGradient id="linearGradient2669" x1="211.122" x2="313.652" y1="-45.217" y2="-45.217" gradientTransform="matrix(1.4679803,0,0,1.4679803,107.56485,394.87445)" gradientUnits="userSpaceOnUse" xlink:href="#linearGradient3326"/><linearGradient id="linearGradient2673" x1="211.122" x2="313.652" y1="-45.217" y2="-45.217" gradientTransform="matrix(1.4679803,0,0,1.4679803,107.56485,394.87445)" gradientUnits="userSpaceOnUse" xlink:href="#linearGradient3326"/><linearGradient id="linearGradient2677" x1="211.122" x2="313.652" y1="-45.217" y2="-45.217" gradientTransform="matrix(1.4679803,0,0,1.4679803,65.57575,335.73625)" gradientUnits="userSpaceOnUse" xlink:href="#linearGradient3326"/><linearGradient id="linearGradient2683" x1="211.122" x2="313.652" y1="-45.217" y2="-45.217" gradientTransform="matrix(1.4679803,0,0,1.4679803,-170.70711,-77.351316)" gradientUnits="userSpaceOnUse" xlink:href="#linearGradient3326"/><linearGradient id="linearGradient2685" x1="211.122" x2="313.652" y1="-45.217" y2="-45.217" gradientTransform="matrix(1.4679803,0,0,1.4679803,-128.718,-18.213116)" gradientUnits="userSpaceOnUse" xlink:href="#linearGradient3326"/><linearGradient id="linearGradient2689" x1="211.122" x2="313.652" y1="-45.217" y2="-45.217" gradientTransform="matrix(1.4679803,0,0,1.4679803,144.49066,426.20744)" gradientUnits="userSpaceOnUse" xlink:href="#linearGradient3326"/><linearGradient id="linearGradient2693" x1="211.122" x2="313.652" y1="-45.217" y2="-45.217" gradientTransform="matrix(1.4679803,0,0,1.4679803,102.50155,367.06924)" gradientUnits="userSpaceOnUse" xlink:href="#linearGradient3326"/><linearGradient id="linearGradient2698" x1="211.122" x2="313.652" y1="-45.217" y2="-45.217" gradientTransform="matrix(1.4679803,0,0,1.4679803,-238.18457,-64.053116)" gradientUnits="userSpaceOnUse" xlink:href="#linearGradient3326"/><linearGradient id="linearGradient2700" x1="211.122" x2="313.652" y1="-45.217" y2="-45.217" gradientTransform="matrix(1.4679803,0,0,1.4679803,-280.17367,-123.19132)" gradientUnits="userSpaceOnUse" xlink:href="#linearGradient3326"/><linearGradient id="linearGradient2703" x1="211.122" x2="313.652" y1="-45.217" y2="-45.217" gradientTransform="matrix(1.4679803,0,0,1.4679803,177.24348,360.52635)" gradientUnits="userSpaceOnUse" xlink:href="#linearGradient3326"/><linearGradient id="linearGradient2706" x1="211.122" x2="313.652" y1="-45.217" y2="-45.217" gradientTransform="matrix(1.4679803,0,0,1.4679803,219.23258,419.66455)" gradientUnits="userSpaceOnUse" xlink:href="#linearGradient3326"/><linearGradient id="linearGradient2721" x1="211.122" x2="313.652" y1="-45.217" y2="-45.217" gradientTransform="matrix(1.4679803,0,0,1.4679803,107.56484,394.87445)" gradientUnits="userSpaceOnUse" xlink:href="#linearGradient3326"/><linearGradient id="linearGradient2724" x1="211.122" x2="313.652" y1="-45.217" y2="-45.217" gradientTransform="matrix(1.4679803,0,0,1.4679803,107.56484,394.87445)" gradientUnits="userSpaceOnUse" xlink:href="#linearGradient3326"/><linearGradient id="linearGradient2727" x1="211.122" x2="313.652" y1="-45.217" y2="-45.217" gradientTransform="matrix(1.4679803,0,0,1.4679803,65.575737,335.73625)" gradientUnits="userSpaceOnUse" xlink:href="#linearGradient3326"/><linearGradient id="linearGradient2732" x1="211.122" x2="313.652" y1="-45.217" y2="-45.217" gradientTransform="matrix(1.4679803,0,0,1.4679803,-6.750205,420.74933)" gradientUnits="userSpaceOnUse" xlink:href="#linearGradient3326"/><linearGradient id="linearGradient2735" x1="211.122" x2="313.652" y1="-45.217" y2="-45.217" gradientTransform="matrix(1.4679803,0,0,1.4679803,-48.739305,361.61113)" gradientUnits="userSpaceOnUse" xlink:href="#linearGradient3326"/><linearGradient id="linearGradient2742" x1="211.122" x2="313.652" y1="-45.217" y2="-45.217" gradientTransform="matrix(1.4679803,0,0,1.4679803,144.49065,426.20744)" gradientUnits="userSpaceOnUse" xlink:href="#linearGradient3326"/><linearGradient id="linearGradient2745" x1="211.122" x2="313.652" y1="-45.217" y2="-45.217" gradientTransform="matrix(1.4679803,0,0,1.4679803,102.50154,367.06924)" gradientUnits="userSpaceOnUse" xlink:href="#linearGradient3326"/><linearGradient id="linearGradient2750" x1="211.122" x2="313.652" y1="-45.217" y2="-45.217" gradientTransform="matrix(1.4679803,0,0,1.4679803,177.24347,360.52635)" gradientUnits="userSpaceOnUse" xlink:href="#linearGradient3326"/><linearGradient id="linearGradient2753" x1="211.122" x2="313.652" y1="-45.217" y2="-45.217" gradientTransform="matrix(1.4679803,0,0,1.4679803,219.23257,419.66455)" gradientUnits="userSpaceOnUse" xlink:href="#linearGradient3326"/><linearGradient id="linearGradient2794" x1="211.122" x2="313.652" y1="-45.217" y2="-45.217" gradientTransform="matrix(1.4679803,0,0,1.4679803,-35.450558,232.32764)" gradientUnits="userSpaceOnUse" xlink:href="#linearGradient3326"/><linearGradient id="linearGradient2796" x1="211.122" x2="313.652" y1="-45.217" y2="-45.217" gradientTransform="matrix(1.4679803,0,0,1.4679803,-77.439658,173.18944)" gradientUnits="userSpaceOnUse" xlink:href="#linearGradient3326"/><linearGradient id="linearGradient2798" x1="211.122" x2="313.652" y1="-45.217" y2="-45.217" gradientTransform="matrix(1.4679803,0,0,1.4679803,-152.18159,179.73233)" gradientUnits="userSpaceOnUse" xlink:href="#linearGradient3326"/><linearGradient id="linearGradient2800" x1="211.122" x2="313.652" y1="-45.217" y2="-45.217" gradientTransform="matrix(1.4679803,0,0,1.4679803,-110.19248,238.87053)" gradientUnits="userSpaceOnUse" xlink:href="#linearGradient3326"/><linearGradient id="linearGradient2802" x1="211.122" x2="313.652" y1="-45.217" y2="-45.217" gradientTransform="matrix(1.4679803,0,0,1.4679803,-303.42243,174.27422)" gradientUnits="userSpaceOnUse" xlink:href="#linearGradient3326"/><linearGradient id="linearGradient2804" x1="211.122" x2="313.652" y1="-45.217" y2="-45.217" gradientTransform="matrix(1.4679803,0,0,1.4679803,-261.43333,233.41242)" gradientUnits="userSpaceOnUse" xlink:href="#linearGradient3326"/><linearGradient id="linearGradient2806" x1="211.122" x2="313.652" y1="-45.217" y2="-45.217" gradientTransform="matrix(1.4679803,0,0,1.4679803,-189.10739,148.39934)" gradientUnits="userSpaceOnUse" xlink:href="#linearGradient3326"/><linearGradient id="linearGradient2808" x1="211.122" x2="313.652" y1="-45.217" y2="-45.217" gradientTransform="matrix(1.4679803,0,0,1.4679803,-147.11829,207.53754)" gradientUnits="userSpaceOnUse" xlink:href="#linearGradient3326"/><linearGradient id="linearGradient2820" x1="211.122" x2="313.652" y1="-45.217" y2="-45.217" gradientTransform="matrix(1.4679803,0,0,1.4679803,-35.450558,232.32764)" gradientUnits="userSpaceOnUse" xlink:href="#linearGradient3326"/><linearGradient id="linearGradient2822" x1="211.122" x2="313.652" y1="-45.217" y2="-45.217" gradientTransform="matrix(1.4679803,0,0,1.4679803,-77.439658,173.18944)" gradientUnits="userSpaceOnUse" xlink:href="#linearGradient3326"/><linearGradient id="linearGradient2824" x1="211.122" x2="313.652" y1="-45.217" y2="-45.217" gradientTransform="matrix(1.4679803,0,0,1.4679803,-152.18159,179.73233)" gradientUnits="userSpaceOnUse" xlink:href="#linearGradient3326"/><linearGradient id="linearGradient2826" x1="211.122" x2="313.652" y1="-45.217" y2="-45.217" gradientTransform="matrix(1.4679803,0,0,1.4679803,-110.19248,238.87053)" gradientUnits="userSpaceOnUse" xlink:href="#linearGradient3326"/><linearGradient id="linearGradient2828" x1="211.122" x2="313.652" y1="-45.217" y2="-45.217" gradientTransform="matrix(1.4679803,0,0,1.4679803,-303.42243,174.27422)" gradientUnits="userSpaceOnUse" xlink:href="#linearGradient3326"/><linearGradient id="linearGradient2830" x1="211.122" x2="313.652" y1="-45.217" y2="-45.217" gradientTransform="matrix(1.4679803,0,0,1.4679803,-261.43333,233.41242)" gradientUnits="userSpaceOnUse" xlink:href="#linearGradient3326"/><linearGradient id="linearGradient2832" x1="211.122" x2="313.652" y1="-45.217" y2="-45.217" gradientTransform="matrix(1.4679803,0,0,1.4679803,-189.10739,148.39934)" gradientUnits="userSpaceOnUse" xlink:href="#linearGradient3326"/><linearGradient id="linearGradient2834" x1="211.122" x2="313.652" y1="-45.217" y2="-45.217" gradientTransform="matrix(1.4679803,0,0,1.4679803,-147.11829,207.53754)" gradientUnits="userSpaceOnUse" xlink:href="#linearGradient3326"/><linearGradient id="linearGradient3206" x1="211.122" x2="313.652" y1="-45.217" y2="-45.217" gradientTransform="matrix(1.4679803,0,0,1.4679803,-142.33363,186.62607)" gradientUnits="userSpaceOnUse" xlink:href="#linearGradient3326"/><linearGradient id="linearGradient3209" x1="211.122" x2="313.652" y1="-45.217" y2="-45.217" gradientTransform="matrix(1.4679803,0,0,1.4679803,-184.32273,127.48787)" gradientUnits="userSpaceOnUse" xlink:href="#linearGradient3326"/><linearGradient id="linearGradient3212" x1="211.122" x2="313.652" y1="-45.217" y2="-45.217" gradientTransform="matrix(1.4679803,0,0,1.4679803,-256.64867,212.50095)" gradientUnits="userSpaceOnUse" xlink:href="#linearGradient3326"/><linearGradient id="linearGradient3215" x1="211.122" x2="313.652" y1="-45.217" y2="-45.217" gradientTransform="matrix(1.4679803,0,0,1.4679803,-298.63777,153.36275)" gradientUnits="userSpaceOnUse" xlink:href="#linearGradient3326"/><linearGradient id="linearGradient3218" x1="211.122" x2="313.652" y1="-45.217" y2="-45.217" gradientTransform="matrix(1.4679803,0,0,1.4679803,-105.40782,217.95906)" gradientUnits="userSpaceOnUse" xlink:href="#linearGradient3326"/><linearGradient id="linearGradient3221" x1="211.122" x2="313.652" y1="-45.217" y2="-45.217" gradientTransform="matrix(1.4679803,0,0,1.4679803,-147.39693,158.82086)" gradientUnits="userSpaceOnUse" xlink:href="#linearGradient3326"/><linearGradient id="linearGradient3224" x1="211.122" x2="313.652" y1="-45.217" y2="-45.217" gradientTransform="matrix(1.4679803,0,0,1.4679803,-72.654999,152.27797)" gradientUnits="userSpaceOnUse" xlink:href="#linearGradient3326"/><linearGradient id="linearGradient3227" x1="211.122" x2="313.652" y1="-45.217" y2="-45.217" gradientTransform="matrix(1.4679803,0,0,1.4679803,-30.665899,211.41617)" gradientUnits="userSpaceOnUse" xlink:href="#linearGradient3326"/></defs><metadata id="metadata7"/><g id="layer1" transform="translate(-287.58434,-235.37563)"><text xml:space="preserve" style="font-size:34.29485321px;font-style:normal;font-weight:400;fill:#000;fill-opacity:1;stroke:none;font-family:UnDotum" id="text3394" x="295.324" y="415.659"><tspan id="tspan3396" x="295.324" y="415.659"><tspan style="fill:#3465a4;fill-opacity:1" id="tspan3361">machine learning</tspan><tspan style="fill:#4e9a06;fill-opacity:1" id="tspan3363"> py</tspan></tspan></text><path style="font-size:20px;font-style:normal;font-weight:400;fill:#4e9a06;fill-opacity:1;stroke:none;font-family:Trebuchet MS" id="path3595" d="m 543.59145,314.56136 7.875,20.0625 c 2.29686,5.90628 4.17186,10.96878 5.625,15 1.45308,3.98436 2.0625,8.0625 2.0625,12.1875 0,3.75 -1.82814,6.79686 -5.8125,9.375 -3.98442,2.625 -8.85936,3.9375 -14.4375,3.9375 l 0,12 c 6.84372,0 13.03122,-1.5 18.5625,-4.6875 5.57808,-3.1875 9.32808,-7.21878 11.0625,-12 l 24,-66.1875 c -4.67844,1.09764 -9.51348,2.29104 -14.4375,3.375 l -11.25,32.8125 -10.6875,-27.9375 c -0.33948,0.0668 -0.59712,0.12084 -0.9375,0.1875 -3.6201,0.70908 -7.90764,1.18812 -11.625,1.875 z"/><path style="font-size:20px;font-style:normal;font-weight:400;fill:#3465a4;fill-opacity:1;stroke:none;font-family:Trebuchet MS" id="path3597" d="m 579.88989,301.62398 c 4.92402,-1.08396 9.75906,-2.27736 14.4375,-3.375 l 7.875,-21.9375 -13.6875,0 -8.625,25.3125 z"/><path style="font-size:20px;font-style:normal;font-weight:400;fill:#3465a4;fill-opacity:1;stroke:none;font-family:Trebuchet MS" id="path3599" d="m 541.19439,308.56148 c 3.71736,-0.68688 8.0049,-1.16592 11.625,-1.875 0.34038,-0.0667 0.59802,-0.12066 0.9375,-0.1875 l -11.4375,-30.1875 -13.6875,0 12.5625,32.25 z"/><path style="font-size:20px;font-style:normal;font-weight:400;fill:#4e9a06;fill-opacity:1;stroke:none;font-family:Trebuchet MS" id="path3525" d="m 459.59925,325.99886 0,61.125 13.3125,0 0,-33.75 c 1.03122,1.45314 3.32808,2.8125 6.9375,3.9375 3.65622,1.125 7.12494,1.6875 10.3125,1.6875 11.34372,0 20.06244,-3.65622 26.0625,-10.875 5.99994,-7.26558 8.99994,-16.5 9,-27.9375 0,-0.9894 -0.33966,-1.67232 -0.375,-2.625 -4.55112,0.75588 -9.02058,1.5417 -13.6875,2.25 -0.0616,18.6108 -8.40552,27.9375 -24.9375,27.9375 -2.57814,0 -5.34378,-0.5625 -8.0625,-1.6875 -2.71878,-1.17186 -4.40628,-2.29686 -5.25,-3.5625 l 0,-17.8125 c -4.3485,0.47982 -8.89776,0.8901 -13.3125,1.3125 z"/><path style="font-size:20px;font-style:normal;font-weight:400;fill:#3465a4;fill-opacity:1;stroke:none;font-family:Trebuchet MS" id="path3527" d="m 459.59925,319.99898 c 4.41474,-0.4224 8.964,-0.83268 13.3125,-1.3125 l 0,-26.0625 c 1.59372,-1.64058 3.65622,-3.18744 6.375,-4.5 2.71872,-1.31244 5.06244,-2.06244 6.9375,-2.0625 8.67186,6e-5 14.99994,2.34384 18.9375,6.75 3.93744,4.40628 5.99994,11.29692 6,20.8125 0,0.0697 2.4e-4,0.11802 0,0.1875 4.66692,-0.7083 9.13638,-1.49412 13.6875,-2.25 -0.4233,-11.4144 -3.1305,-20.48142 -8.625,-26.625 -5.9532,-6.65616 -14.25006,-10.12494 -24.9375,-10.125 -7.17192,6e-5 -13.3125,2.62506 -18.375,7.6875 l 0,-6.1875 -13.3125,0 0,43.6875 z"/><path style="font-size:20px;font-style:normal;font-weight:400;fill:#3465a4;fill-opacity:1;stroke:none;font-family:Trebuchet MS" id="path3316" d="m 398.08434,323.56836 0,-22.3125 c -1.2e-4,-8.34372 -2.10949,-14.71866 -6.375,-19.3125 -4.2657,-4.64058 -10.40634,-7.12494 -18.1875,-7.125 -4.31257,6e-5 -8.48449,1.0782 -12.5625,3 -4.0782,1.92192 -6.75007,4.2657 -8.25,7.125 -4.31257,-6.70308 -11.90628,-10.12494 -22.6875,-10.125 -7.73442,6e-5 -14.15628,3.37506 -19.3125,10.125 l -4.5,-8.625 -8.625,0 0,41.4375 c 4.43939,0.5739 8.87232,1.21422 13.3125,1.6875 l 0,-23.4375 c 1.26558,-2.4843 3.375,-4.68744 6.375,-6.75 3.04685,-2.06244 5.95308,-3.18744 8.625,-3.1875 4.59372,6e-5 8.2968,1.21884 11.0625,3.375 2.81243,2.10942 4.12493,4.92192 4.125,8.625 l 0,24.9375 c 4.50119,0.26418 8.8263,0.0137 13.3125,0.1875 l 0,-27.1875 c 1.03116,-2.53122 2.99993,-4.78116 5.8125,-6.75 2.81243,-2.01558 5.95301,-3.18744 9.1875,-3.1875 10.26551,6e-5 15.37488,5.9532 15.375,17.8125 l 0,19.5 c 4.43369,-0.0166 8.90987,0.2805 13.3125,0.1875 z"/><path style="font-size:20px;font-style:normal;font-weight:400;fill:#4e9a06;fill-opacity:1;stroke:none;font-family:Trebuchet MS" id="path3318" d="m 310.89684,325.44324 c -4.44018,-0.47328 -8.87311,-1.1136 -13.3125,-1.6875 l 0,33.9375 13.3125,0 0,-32.25 z"/><path style="font-size:20px;font-style:normal;font-weight:400;fill:#4e9a06;fill-opacity:1;stroke:none;font-family:Trebuchet MS" id="path3320" d="m 354.39684,329.19324 c -4.4862,-0.17376 -8.81131,0.0767 -13.3125,-0.1875 l 0,28.6875 13.3125,0 0,-28.5 z"/><path style="font-size:20px;font-style:normal;font-weight:400;fill:#4e9a06;fill-opacity:1;stroke:none;font-family:Trebuchet MS" id="path3322" d="m 398.08434,329.56824 c -4.40263,0.093 -8.87881,-0.20406 -13.3125,-0.1875 l 0,28.3125 13.3125,0 0,-28.125 z"/><path style="font-size:20px;font-style:normal;font-weight:400;fill:#4e9a06;fill-opacity:1;stroke:none;font-family:Trebuchet MS" id="path3444" d="m 432.12231,328.43801 c -4.53018,0.2844 -8.73408,0.91344 -13.3125,1.125 l 0,6.75 c 0,15.14064 8.57808,22.6875 25.875,22.6875 l 0,-12 c -3.75006,0 -6.84378,-1.07814 -9.1875,-3.375 -2.29692,-2.34372 -3.375,-5.53122 -3.375,-9.5625 l 0,-5.625 z"/><path style="font-size:20px;font-style:normal;font-weight:400;fill:#3465a4;fill-opacity:1;stroke:none;font-family:Trebuchet MS" id="path3446" d="m 418.80981,245.37563 0,78.1875 c 4.57842,-0.21156 8.78232,-0.8406 13.3125,-1.125 l 0,-77.0625 -13.3125,0 z"/></g></svg>